<svg version="1.1" id="Layer_1" xmlns="http://www.w3.org/2000/svg" xmlns:xlink="http://www.w3.org/1999/xlink" x="0px" y="0px"
	 viewBox="0 0 190 190" enable-background="new 0 0 190 190" xml:space="preserve">
<circle fill="#333333" cx="95" cy="95" r="95"/>
<g>
	<g>
		<path class="logo-move" fill="#E6E6E5" d="M150.1,84.7H39.9c-1.2,0-2.3-0.8-2.6-2c-0.3-1.2,0.2-2.5,1.3-3l55.1-30.3c0.8-0.4,1.8-0.4,2.6,0l55.1,30.3
			c1.1,0.6,1.6,1.8,1.3,3C152.4,83.9,151.3,84.7,150.1,84.7z M50.5,79.3h89L95,54.8L50.5,79.3z"/>
	</g>
	<g>
		<path class="logo-move" fill="#E6E6E5" d="M150.1,96H39.9c-1.5,0-2.7-1.2-2.7-2.7c0-1.5,1.2-2.7,2.7-2.7h110.1c1.5,0,2.7,1.2,2.7,2.7
			C152.8,94.8,151.6,96,150.1,96z"/>
	</g>
	<path class="logo-move" fill="#E6E6E5" d="M152.4,103.7c-0.9-1-2.5-1-3.4-0.1c-0.6,0.5-5.6,5-10.5,0.1c-6.6-6.6-14.1-2.9-17.2-0.1c0,0,0,0,0,0
		c-0.6,0.5-5.6,4.9-10.5,0.1c0,0,0,0,0,0c-6.2-6.2-13.2-3.3-16.6-0.6c-0.3,0.1-0.6,0.3-0.9,0.5c-0.6,0.5-5.6,4.9-10.5,0.1
		c0,0,0,0,0,0c-6.6-6.6-14.2-2.9-17.2-0.1c-0.6,0.5-5.6,5-10.5,0.1c0,0,0,0,0,0c-6.6-6.6-14.2-2.9-17.2,0c-0.5,0.5-0.8,1.1-0.8,1.8
		c0,0.6,0.2,1.2,0.7,1.7c0.9,1,2.5,1,3.4,0.1c0.6-0.5,5.6-5,10.5-0.1c0,0,0,0,0,0c6.6,6.6,14.1,2.9,17.2,0.1c0,0,0,0,0,0
		c0.6-0.5,5.6-4.9,10.5-0.1c0,0,0,0,0,0c6.2,6.2,13.2,3.3,16.6,0.6c0.3-0.1,0.7-0.3,0.9-0.5c0.6-0.5,5.6-5,10.5-0.1c0,0,0,0,0,0
		c6.6,6.6,14.1,2.9,17.2,0.1c0,0,0,0,0,0c0.6-0.5,5.6-4.9,10.5-0.1c6.6,6.6,14.2,2.9,17.2,0.1C153.2,106.2,153.3,104.6,152.4,103.7z
		"/>
	<g>
		<path class="logo-move" fill="#E6E6E5" d="M150.1,133H39.9c-1.5,0-2.7-1.2-2.7-2.7v-11.1c0-1.5,1.2-2.7,2.7-2.7h110.1c1.5,0,2.7,1.2,2.7,2.7v11.1
			C152.8,131.7,151.6,133,150.1,133z M42.6,127.5h104.7v-5.7H42.6V127.5z"/>
	</g>
</g>
</svg>
