<svg version="1.1" id="Layer_1" xmlns="http://www.w3.org/2000/svg" xmlns:xlink="http://www.w3.org/1999/xlink" x="0px" y="0px"
	 viewBox="0 0 612 792" enable-background="new 0 0 612 792" xml:space="preserve">
<circle fill="#333333" cx="306" cy="396" r="306"/>
<g class="logo-start">
	<g>
		<path class="logo-move" fill="#E6E6E5" d="M483.5,327.8h-355c-3.9,0-7.4-2.6-8.4-6.4c-1-3.9,0.6-8.1,4.2-9.7l177.5-88.6c2.6-1.3,5.8-1.3,8.4,0
			l177.5,88.6c3.5,1.9,5.2,5.8,4.2,9.7C490.9,325.2,487.3,327.8,483.5,327.8z M162.7,310.4h286.7L306,240.5L162.7,310.4z"/>
	</g>
	<g>
		<path class="logo-move two" fill="#E6E6E5" d="M483.5,379.2h-355c-4.8,0-8.7-3.9-8.7-8.7s3.9-8.7,8.7-8.7h354.6c4.8,0,8.7,3.9,8.7,8.7
			C492.2,375.4,488.3,379.2,483.5,379.2z"/>
	</g>
	<path class="logo-move three" fill="#E6E6E5" d="M490.9,425c-2.9-3.2-8.1-3.2-11-0.3c-1.9,1.6-18,16.1-33.8,0.3c-21.3-21.3-45.4-9.3-55.4-0.3l0,0
		c-1.9,1.6-18,15.8-33.8,0.3l0,0c-20-20-42.5-10.6-53.5-1.9c-1,0.3-1.9,1-2.9,1.6c-1.9,1.6-18,15.8-33.8,0.3l0,0
		c-21.3-21.3-45.7-9.3-55.4-0.3c-1.9,1.6-18,16.1-33.8,0.3l0,0c-21.3-21.3-45.7-9.3-55.4,0c-1.6,1.6-2.6,3.5-2.6,5.8
		c0,1.9,0.6,3.9,2.3,5.5c2.9,3.2,8.1,3.2,11,0.3c1.9-1.6,18-16.1,33.8-0.3l0,0c21.3,21.3,45.4,9.3,55.4,0.3l0,0
		c1.9-1.6,18-15.8,33.8-0.3l0,0c20,20,42.5,10.6,53.5,1.9c1-0.3,2.3-1,2.9-1.6c1.9-1.6,18-16.1,33.8-0.3l0,0
		c21.3,21.3,45.4,9.3,55.4,0.3l0,0c1.9-1.6,18-15.8,33.8-0.3c21.3,21.3,45.7,9.3,55.4,0.3C493.5,433.1,493.8,427.9,490.9,425z"/>
	<g>
		<path class="logo-move four" fill="#E6E6E5" d="M483.5,531.4h-355c-4.8,0-8.7-3.9-8.7-8.7v-35.8c0-4.8,3.9-8.7,8.7-8.7h354.6c4.8,0,8.7,3.9,8.7,8.7v35.8
			C492.2,527.2,488.3,531.4,483.5,531.4z M137.2,513.7h337.2v-18.4H137.2V513.7z"/>
	</g>
</g>
</svg>
